<svg xmlns="http://www.w3.org/2000/svg" width="21" height="20" viewBox="0 0 21 20" fill="none">
  <path fill-rule="evenodd" clip-rule="evenodd" d="M4.32857 5.34749L4.93157 12.5195C4.97557 13.0715 5.42657 13.4855 5.97757 13.4855H5.98157H16.8926H16.8946C17.4156 13.4855 17.8606 13.0975 17.9346 12.5825L18.8846 6.02349C18.9066 5.86749 18.8676 5.71149 18.7726 5.58549C18.6786 5.45849 18.5406 5.37649 18.3846 5.35449C18.1756 5.36249 9.50257 5.35049 4.32857 5.34749ZM5.97557 14.9855C4.65857 14.9855 3.54357 13.9575 3.43657 12.6425L2.52057 1.74849L1.01357 1.48849C0.60457 1.41649 0.33157 1.02949 0.40157 0.620487C0.47357 0.211487 0.86857 -0.054513 1.26857 0.00948704L3.34857 0.369487C3.68357 0.428487 3.93857 0.706487 3.96757 1.04649L4.20257 3.84749C18.4786 3.85349 18.5246 3.86049 18.5936 3.86849C19.1506 3.94949 19.6406 4.24049 19.9746 4.68849C20.3086 5.13549 20.4486 5.68649 20.3686 6.23849L19.4196 12.7965C19.2406 14.0445 18.1566 14.9855 16.8966 14.9855H16.8916H5.98357H5.97557Z" fill="white"/>
  <path fill-rule="evenodd" clip-rule="evenodd" d="M15.2876 9.04395H12.5156C12.1006 9.04395 11.7656 8.70795 11.7656 8.29395C11.7656 7.87995 12.1006 7.54395 12.5156 7.54395H15.2876C15.7016 7.54395 16.0376 7.87995 16.0376 8.29395C16.0376 8.70795 15.7016 9.04395 15.2876 9.04395Z" fill="white"/>
  <path fill-rule="evenodd" clip-rule="evenodd" d="M5.545 17.7021C5.846 17.7021 6.089 17.9451 6.089 18.2461C6.089 18.5471 5.846 18.7911 5.545 18.7911C5.243 18.7911 5 18.5471 5 18.2461C5 17.9451 5.243 17.7021 5.545 17.7021Z" fill="white"/>
  <mask id="mask0_517_702" style="mask-type:luminance" maskUnits="userSpaceOnUse" x="5" y="17" width="2" height="2">
    <path fill-rule="evenodd" clip-rule="evenodd" d="M5 18.2452C5 18.5472 5.243 18.7912 5.546 18.7912C5.847 18.7912 6.09 18.5472 6.09 18.2452C6.09 17.9442 5.847 17.7012 5.546 17.7012C5.243 17.7012 5 17.9442 5 18.2452Z" fill="white"/>
  </mask>
  <g mask="url(#mask0_517_702)">
    <path fill-rule="evenodd" clip-rule="evenodd" d="M0.00195312 23.7902H11.091V12.7012H0.00195312V23.7902Z" fill="white"/>
  </g>
  <path fill-rule="evenodd" clip-rule="evenodd" d="M5.544 18.0411C5.431 18.0411 5.339 18.1331 5.339 18.2461C5.339 18.4731 5.75 18.4731 5.75 18.2461C5.75 18.1331 5.657 18.0411 5.544 18.0411ZM5.544 19.5411C4.83 19.5411 4.25 18.9601 4.25 18.2461C4.25 17.5321 4.83 16.9521 5.544 16.9521C6.258 16.9521 6.839 17.5321 6.839 18.2461C6.839 18.9601 6.258 19.5411 5.544 19.5411Z" fill="white"/>
  <path fill-rule="evenodd" clip-rule="evenodd" d="M16.8263 17.7021C17.1273 17.7021 17.3713 17.9451 17.3713 18.2461C17.3713 18.5471 17.1273 18.7911 16.8263 18.7911C16.5243 18.7911 16.2812 18.5471 16.2812 18.2461C16.2812 17.9451 16.5243 17.7021 16.8263 17.7021Z" fill="white"/>
  <mask id="mask1_517_702" style="mask-type:luminance" maskUnits="userSpaceOnUse" x="16" y="17" width="2" height="2">
    <path fill-rule="evenodd" clip-rule="evenodd" d="M16.2812 18.2452C16.2812 18.5472 16.5242 18.7912 16.8262 18.7912C17.1262 18.7912 17.3712 18.5472 17.3712 18.2452C17.3712 17.9442 17.1262 17.7012 16.8262 17.7012C16.5242 17.7012 16.2812 17.9442 16.2812 18.2452Z" fill="white"/>
  </mask>
  <g mask="url(#mask1_517_702)">
    <path fill-rule="evenodd" clip-rule="evenodd" d="M11.2812 23.7902H22.3713V12.7012H11.2812V23.7902Z" fill="white"/>
  </g>
  <path fill-rule="evenodd" clip-rule="evenodd" d="M16.8252 18.0411C16.7132 18.0411 16.6212 18.1331 16.6212 18.2461C16.6222 18.4751 17.0322 18.4731 17.0312 18.2461C17.0312 18.1331 16.9382 18.0411 16.8252 18.0411ZM16.8253 19.5411C16.1113 19.5411 15.5312 18.9601 15.5312 18.2461C15.5312 17.5321 16.1113 16.9521 16.8253 16.9521C17.5403 16.9521 18.1213 17.5321 18.1213 18.2461C18.1213 18.9601 17.5403 19.5411 16.8253 19.5411Z" fill="white"/>
</svg>