<svg width="49" height="53" viewBox="0 0 49 53" fill="none" xmlns="http://www.w3.org/2000/svg">
<g filter="url(#filter0_d_492_1284)">
<path fill-rule="evenodd" clip-rule="evenodd" d="M17.2996 16.9C17.2996 16.2635 17.5525 15.653 18.0026 15.2029C18.4526 14.7529 19.0631 14.5 19.6996 14.5H29.5412L34.8996 18.0712V32.9C34.8996 33.5365 34.6468 34.147 34.1967 34.5971C33.7466 35.0471 33.1361 35.3 32.4996 35.3H31.6996V36.1C31.6996 36.7365 31.4468 37.347 30.9967 37.7971C30.5466 38.2471 29.9361 38.5 29.2996 38.5H16.4996C15.8631 38.5 15.2526 38.2471 14.8026 37.7971C14.3525 37.347 14.0996 36.7365 14.0996 36.1V20.1C14.0996 19.4635 14.3525 18.853 14.8026 18.4029C15.2526 17.9529 15.8631 17.7 16.4996 17.7H17.2996V16.9ZM17.2996 19.3H16.4996C16.2874 19.3 16.084 19.3843 15.9339 19.5343C15.7839 19.6843 15.6996 19.8878 15.6996 20.1V36.1C15.6996 36.3122 15.7839 36.5157 15.9339 36.6657C16.084 36.8157 16.2874 36.9 16.4996 36.9H29.2996C29.5118 36.9 29.7153 36.8157 29.8653 36.6657C30.0153 36.5157 30.0996 36.3122 30.0996 36.1V35.3H19.6996C19.0631 35.3 18.4526 35.0471 18.0026 34.5971C17.5525 34.147 17.2996 33.5365 17.2996 32.9V19.3Z" fill="url(#paint0_linear_492_1284)"/>
<path d="M19.6996 15H29.3899L34.3996 18.3388V32.9C34.3996 33.4039 34.1994 33.8872 33.8431 34.2435C33.4868 34.5998 33.0035 34.8 32.4996 34.8H31.6996H31.1996V35.3V36.1C31.1996 36.6039 30.9994 37.0872 30.6431 37.4435C30.2868 37.7998 29.8035 38 29.2996 38H16.4996C15.9957 38 15.5124 37.7998 15.1561 37.4435C14.7998 37.0872 14.5996 36.6039 14.5996 36.1V20.1C14.5996 19.5961 14.7998 19.1128 15.1561 18.7565C15.5124 18.4002 15.9957 18.2 16.4996 18.2H17.2996H17.7996V17.7V16.9C17.7996 16.3961 17.9998 15.9128 18.3561 15.5565C18.7124 15.2002 19.1957 15 19.6996 15ZM17.7996 19.3V18.8H17.2996H16.4996C16.1548 18.8 15.8242 18.937 15.5804 19.1808C15.3366 19.4246 15.1996 19.7552 15.1996 20.1V36.1C15.1996 36.4448 15.3366 36.7754 15.5804 37.0192C15.8242 37.263 16.1548 37.4 16.4996 37.4H29.2996C29.6444 37.4 29.975 37.263 30.2188 37.0192C30.4626 36.7754 30.5996 36.4448 30.5996 36.1V35.3V34.8H30.0996H19.6996C19.1957 34.8 18.7124 34.5998 18.3561 34.2435C17.9998 33.8872 17.7996 33.4039 17.7996 32.9V19.3Z" stroke="url(#paint1_linear_492_1284)"/>
</g>
<defs>
<filter id="filter0_d_492_1284" x="-0.000391006" y="0.4" width="49.0008" height="52.2" filterUnits="userSpaceOnUse" color-interpolation-filters="sRGB">
<feFlood flood-opacity="0" result="BackgroundImageFix"/>
<feColorMatrix in="SourceAlpha" type="matrix" values="0 0 0 0 0 0 0 0 0 0 0 0 0 0 0 0 0 0 127 0" result="hardAlpha"/>
<feOffset/>
<feGaussianBlur stdDeviation="7.05"/>
<feComposite in2="hardAlpha" operator="out"/>
<feColorMatrix type="matrix" values="0 0 0 0 0.245694 0 0 0 0 0.404308 0 0 0 0 0.966667 0 0 0 0.62 0"/>
<feBlend mode="normal" in2="BackgroundImageFix" result="effect1_dropShadow_492_1284"/>
<feBlend mode="normal" in="SourceGraphic" in2="effect1_dropShadow_492_1284" result="shape"/>
</filter>
<linearGradient id="paint0_linear_492_1284" x1="26.9758" y1="12.2143" x2="11.7655" y2="34.8877" gradientUnits="userSpaceOnUse">
<stop stop-color="white"/>
<stop offset="1" stop-color="#C8D0FF"/>
</linearGradient>
<linearGradient id="paint1_linear_492_1284" x1="26.9758" y1="12.2143" x2="11.7655" y2="34.8877" gradientUnits="userSpaceOnUse">
<stop stop-color="white"/>
<stop offset="1" stop-color="#C8D0FF"/>
</linearGradient>
</defs>
</svg>
