<svg width="25" height="24" viewBox="0 0 25 24" fill="none" xmlns="http://www.w3.org/2000/svg">
<g id="Icon-Documents-Default">
<path id="Vector" fillRule="evenodd" clipRule="evenodd" d="M5.29998 2.4C5.29998 1.76348 5.55283 1.15303 6.00292 0.702944C6.45301 0.252856 7.06346 0 7.69998 0L17.5416 0L22.9 3.5712V18.4C22.9 19.0365 22.6471 19.647 22.197 20.0971C21.7469 20.5471 21.1365 20.8 20.5 20.8H19.7V21.6C19.7 22.2365 19.4471 22.847 18.997 23.2971C18.5469 23.7471 17.9365 24 17.3 24H4.49998C3.86346 24 3.25301 23.7471 2.80292 23.2971C2.35283 22.847 2.09998 22.2365 2.09998 21.6V5.6C2.09998 4.96348 2.35283 4.35303 2.80292 3.90294C3.25301 3.45286 3.86346 3.2 4.49998 3.2H5.29998V2.4ZM5.29998 4.8H4.49998C4.2878 4.8 4.08432 4.88429 3.93429 5.03431C3.78426 5.18434 3.69998 5.38783 3.69998 5.6V21.6C3.69998 21.8122 3.78426 22.0157 3.93429 22.1657C4.08432 22.3157 4.2878 22.4 4.49998 22.4H17.3C17.5121 22.4 17.7156 22.3157 17.8657 22.1657C18.0157 22.0157 18.1 21.8122 18.1 21.6V20.8H7.69998C7.06346 20.8 6.45301 20.5471 6.00292 20.0971C5.55283 19.647 5.29998 19.0365 5.29998 18.4V4.8Z" fill="#C5CEFF"/>
</g>
</svg>
