<svg width="24" height="24" viewBox="0 0 24 24" fill="none" xmlns="http://www.w3.org/2000/svg">
<g id="Icon-Design-Default" clip-path="url(#clip0_6_418)">
<path id="Vector" d="M6 11.6067V18H12.3933L11.06 16.6667H7.33333V12.94L6 11.6067Z" fill="#C5CEFF"/>
<path id="Vector_2" d="M23.2467 21.5267L21.3333 19.5867V21.3333H2.66666V18.5667H3.99999V17.5H2.66666V13.0667H3.99999V12H2.66666V7.73333H3.99999V6.66666H2.66666V2.93999L13.2933 13.5067V11.6267L2.47332 0.859991C2.38008 0.765972 2.26094 0.701851 2.13111 0.675805C2.00128 0.649759 1.86663 0.662966 1.74434 0.713744C1.62204 0.764522 1.51764 0.850569 1.44444 0.960916C1.37124 1.07126 1.33255 1.20091 1.33332 1.33332V22C1.33332 22.1768 1.40356 22.3464 1.52859 22.4714C1.65361 22.5964 1.82318 22.6667 1.99999 22.6667H22.7733C22.9057 22.6674 23.0354 22.6287 23.1457 22.5555C23.2561 22.4823 23.3421 22.3779 23.3929 22.2556C23.4437 22.1334 23.4569 21.9987 23.4308 21.8689C23.4048 21.739 23.3407 21.6199 23.2467 21.5267Z" fill="#C5CEFF"/>
<path id="Vector_3" d="M16 20H18.6667C19.0203 20 19.3594 19.8595 19.6095 19.6095C19.8595 19.3594 20 19.0203 20 18.6667V5.8L18.4667 2.98C18.3481 2.77454 18.1768 2.60445 17.9706 2.48726C17.7643 2.37007 17.5306 2.31003 17.2934 2.31333C17.0508 2.31526 16.8133 2.38332 16.6066 2.51019C16.3998 2.63706 16.2316 2.81794 16.12 3.03333L14.6667 5.81333V18.6667C14.6667 19.0203 14.8072 19.3594 15.0572 19.6095C15.3073 19.8595 15.6464 20 16 20ZM16 6.13333L17.2934 3.62L18.6667 6.14V16H16V6.13333ZM16 17.0867H18.6667V18.7133H16V17.0867Z" fill="#C5CEFF"/>
</g>
<defs>
<clipPath id="clip0_6_418">
<rect width="24" height="24" fill="white"/>
</clipPath>
</defs>
</svg>
