<svg width="25" height="24" viewBox="0 0 25 24" fill="none" xmlns="http://www.w3.org/2000/svg">
<g id="Icon-AboutMe-Default">
<path id="Vector" d="M19 20.247V16C19 16 16.5 14.5 12.5 14.5C8.5 14.5 6 16 6 16V20.247M2 12C2 6.201 6.701 1.5 12.5 1.5C18.299 1.5 23 6.201 23 12C23 17.799 18.299 22.5 12.5 22.5C6.701 22.5 2 17.799 2 12ZM12.426 12.5C12.426 12.5 9 10.68 9 8C9 6.067 10.569 4.5 12.504 4.5C12.9635 4.49987 13.4185 4.59034 13.8429 4.76623C14.2674 4.94212 14.653 5.19999 14.9778 5.52507C15.3025 5.85016 15.5599 6.23608 15.7353 6.66075C15.9107 7.08543 16.0007 7.54053 16 8C16 10.68 12.574 12.5 12.574 12.5H12.426Z" stroke="#C5CEFF" stroke-width="1.3"/>
</g>
</svg>
